<?xml version="1.0" encoding="UTF-8"?>
<svg width="11.377mm" height="13.229mm" version="1.1" viewBox="0 0 11.377 13.229" xmlns="http://www.w3.org/2000/svg">
<g stroke-linecap="round" stroke-linejoin="round">
<path d="m5.6478 13.229q-2.5754 0-4.1157-1.7802-1.532-1.7889-1.532-4.8344 0-3.0455 1.532-4.8257 1.5403-1.7889 4.1157-1.7889 1.9792 0 3.3704 1.1257 1.3912 1.1257 1.5651 2.967h-1.6562q-0.099373-1.213-1.002-1.9285-0.89437-0.71556-2.2608-0.71556-1.8467 0-2.9233 1.3439-1.0766 1.3351-1.0766 3.8221 0 2.4783 1.0683 3.8221 1.0683 1.3439 2.8984 1.3439 1.4244 0 2.3022-0.73302 0.8778-0.73302 0.99374-2.0943h1.6562q-0.1739 2.042-1.5237 3.1589-1.3498 1.117-3.4118 1.117z" fill="#f00" stroke-width=".89728"/>
<path d="m6.4415 13.229q-2.5754 0-4.1157-1.7802-1.532-1.7889-1.532-4.8344 0-3.0455 1.532-4.8257 1.5403-1.7889 4.1157-1.7889 1.9792 0 3.3704 1.1257 1.3912 1.1257 1.5651 2.967h-1.6562q-0.099373-1.213-1.002-1.9285-0.89437-0.71556-2.2608-0.71556-1.8467 0-2.9233 1.3439-1.0766 1.3351-1.0766 3.8221 0 2.4783 1.0683 3.8221 1.0683 1.3439 2.8984 1.3439 1.4244 0 2.3022-0.73302 0.8778-0.73302 0.99374-2.0943h1.6562q-0.17391 2.042-1.5237 3.1589-1.3498 1.117-3.4118 1.117z" fill="#0ff" stroke-width=".89728"/>
</g>
</svg>
